HIERARCHY
ROOT Root
{
	OFFSET 0.000000 0.000000 0.000000
	CHANNELS 6 Xposition Yposition Zposition Xrotation Yrotation Zrotation
	JOINT Pelvis_R
	{
		OFFSET 0.000000 0.000000 10.000000
		CHANNELS 3 Xrotation Yrotation Zrotation
		JOINT Thigh_R
		{
			OFFSET 0.000000 -0.000000 9.000000
			CHANNELS 3 Xrotation Yrotation Zrotation
			JOINT Shin_R
			{
				OFFSET 0.000000 -0.000002 50.000000
				CHANNELS 3 Xrotation Yrotation Zrotation
				JOINT Foot_R
				{
					OFFSET 0.000000 -0.000002 41.500004
					CHANNELS 3 Xrotation Yrotation Zrotation
					End Site
					{
						OFFSET 0.000000 -0.000001 18.499994
					}
				}
			}
		}
	}
	JOINT Pelvis_L
	{
		OFFSET 0.000000 0.000000 10.000000
		CHANNELS 3 Xrotation Yrotation Zrotation
		JOINT Thigh_L
		{
			OFFSET 0.000000 -0.000000 9.000000
			CHANNELS 3 Xrotation Yrotation Zrotation
			JOINT Shin_L
			{
				OFFSET 0.000000 -0.000002 50.000000
				CHANNELS 3 Xrotation Yrotation Zrotation
				JOINT Foot_L
				{
					OFFSET 0.000000 -0.000002 41.500004
					CHANNELS 3 Xrotation Yrotation Zrotation
					End Site
					{
						OFFSET 0.000000 -0.000001 18.499994
					}
				}
			}
		}
	}
	JOINT Spine
	{
		OFFSET 0.000000 0.000000 10.000000
		CHANNELS 3 Xrotation Yrotation Zrotation
		JOINT Neck
		{
			OFFSET 0.000000 -0.000002 52.499996
			CHANNELS 3 Xrotation Yrotation Zrotation
			JOINT Head
			{
				OFFSET 0.000000 -0.000001 16.500002
				CHANNELS 3 Xrotation Yrotation Zrotation
				End Site
				{
					OFFSET 0.000000 -0.000000 9.499997
				}
			}
		}
		JOINT Shoulder_R
		{
			OFFSET 0.000000 -0.000002 52.499996
			CHANNELS 3 Xrotation Yrotation Zrotation
			JOINT Upperarm_R
			{
				OFFSET 0.000000 -0.000001 16.500002
				CHANNELS 3 Xrotation Yrotation Zrotation
				JOINT Forearm_R
				{
					OFFSET 0.000000 -0.000001 25.999992
					CHANNELS 3 Xrotation Yrotation Zrotation
					JOINT Hand_R
					{
						OFFSET 0.000000 -0.000001 24.000000
						CHANNELS 3 Xrotation Yrotation Zrotation
						End Site
						{
							OFFSET 0.000000 -0.000000 7.500005
						}
					}
				}
			}
		}
		JOINT Shoulder_L
		{
			OFFSET 0.000000 -0.000002 52.499996
			CHANNELS 3 Xrotation Yrotation Zrotation
			JOINT Upperarm_L
			{
				OFFSET 0.000000 -0.000001 16.500002
				CHANNELS 3 Xrotation Yrotation Zrotation
				JOINT Forearm_L
				{
					OFFSET 0.000000 -0.000001 25.999992
					CHANNELS 3 Xrotation Yrotation Zrotation
					JOINT Hand_L
					{
						OFFSET 0.000000 -0.000001 24.000000
						CHANNELS 3 Xrotation Yrotation Zrotation
						End Site
						{
							OFFSET 0.000000 -0.000000 7.500005
						}
					}
				}
			}
		}
	}
}
MOTION
Frames: 10
Frame Time: 0.041667
7.027954 75.251755 -0.004665 -0.000000 0.000000 -0.000000 -14.701137 -87.435410 -14.064001 -89.678854 -0.558264 87.793250 20.790095 1.410834 1.083085 -31.928416 9.497767 10.865310 -14.701041 92.564588 15.366384 -89.225418 7.100299 -91.361403 20.556496 0.207164 0.547737 -33.767383 -5.501982 -8.883215 95.016879 -0.729051 0.795853 18.246915 2.073866 -3.458060 2.215536 -0.051087 0.188029 -33.532090 -93.247068 65.210678 -79.026586 0.925421 84.323180 -43.965197 35.338716 79.542635 17.795423 25.676314 51.529331 -33.532011 86.752951 -57.909028 -71.814795 14.831486 -66.962560 -119.808266 28.708351 -354.361798 -33.790616 -4.975963 13.347070 
7.004607 75.157066 -0.004459 -0.000000 0.000000 -0.000000 -6.619910 -87.181894 -6.302723 -89.917364 -0.650725 87.394763 20.583147 1.729044 1.280287 -31.913827 9.042885 10.183362 -6.619797 92.818111 6.952879 -88.673033 7.179521 -91.513361 20.874279 -0.068775 0.398259 -33.779746 -5.315619 -8.612892 95.127747 -0.701655 0.767436 18.143627 1.984772 -3.310430 2.347421 -0.008588 0.122317 -31.567427 -93.089762 67.162691 -79.205940 0.581413 84.218049 -44.067684 34.797266 79.173251 17.414703 25.828782 52.172933 -31.566986 86.910237 -60.092175 -71.680937 14.766169 -67.139844 -119.561328 28.688447 -354.393681 -33.716327 -4.828833 13.202861 
6.953010 75.061508 -0.004818 -0.000000 0.000000 -0.000000 -28.491738 -85.659841 -26.487320 -87.454808 0.115570 85.498560 20.880675 1.970183 1.211695 -32.363178 9.726781 11.633581 -28.491603 94.340171 30.634099 -90.986207 9.497545 -93.210437 21.463909 0.255481 0.411322 -34.254109 -9.151927 -13.729179 94.157532 -0.681065 0.732367 19.017530 2.156251 -3.566510 3.320545 0.017469 0.146600 -15.828726 -93.451113 82.502429 -79.022686 1.671961 83.760522 -44.966185 36.267174 81.651305 18.444357 23.217244 48.446228 -15.828776 86.548899 -74.276600 -71.224598 15.181887 -67.183639 -119.563527 27.624273 -347.821892 -33.450141 1.188240 8.374344 
6.819084 75.164406 -0.004939 -0.000000 0.000000 -0.000000 -29.951428 -86.281989 -28.145447 -87.312193 -0.443691 85.736646 20.308628 2.586426 1.573000 -32.179811 9.903471 11.934715 -29.951302 93.718016 31.861781 -90.723094 8.253173 -92.438394 21.109239 -0.353647 -0.004189 -33.573440 -7.755820 -11.230314 94.931064 -0.629905 0.686589 18.661108 2.270064 -3.742142 2.931292 0.276692 -0.278859 -21.518890 -93.251903 77.275852 -79.230912 1.669880 83.911681 -45.284598 36.842184 82.561202 17.656790 23.786776 48.754222 -21.518953 86.748108 -69.667513 -71.315064 14.705674 -67.243486 -120.453460 28.358819 -351.085657 -33.272713 -2.098479 10.882063 
6.618196 74.085342 -0.005070 -0.000000 0.000000 -0.000000 -31.306442 -87.824546 -30.193992 -87.903551 -0.582955 87.079591 20.706429 2.455145 1.425528 -31.241354 9.788024 11.532819 -31.306264 92.175459 32.455406 -90.362945 8.680720 -91.344744 21.765760 0.103379 0.268527 -32.122065 -7.359938 -10.561878 94.677753 -0.519594 0.563845 18.688910 1.782747 -2.937799 3.048013 -0.052777 0.220127 -38.273955 -94.833044 61.128725 -78.667469 1.706030 85.653960 -42.023647 36.193398 78.316213 21.876298 33.068559 62.844591 -38.274003 85.166981 -51.940133 -73.196023 15.443985 -66.585424 -120.758346 28.367157 -354.591047 -33.793645 -6.424779 14.890950 
6.905776 74.609947 -0.004875 -0.000000 0.000000 -0.000000 -13.125604 -87.930926 -12.663824 -88.923722 0.464111 87.370796 19.915209 1.791291 1.074512 -31.838292 9.573966 11.263054 -13.125408 92.069079 13.603726 -89.873070 6.140099 -91.629187 20.003297 0.145078 0.242017 -32.200339 -7.210859 -10.274893 94.090425 -0.815733 0.876149 19.553828 2.258354 -3.822681 3.049138 -0.233033 0.542141 -28.137613 -95.639369 72.161720 -77.666627 6.396711 85.517452 -40.718244 40.744001 78.553405 22.780192 31.302016 55.112168 -28.137569 84.360629 -60.097209 -74.579382 15.342925 -67.004607 -123.619211 26.725823 -349.930098 -33.013730 -1.870949 10.184264 
6.549078 73.304398 -0.005182 -0.000000 0.000000 -0.000000 -26.900591 -85.770046 -25.047118 -87.268289 -0.879539 85.141580 20.955601 2.678696 1.610196 -31.114087 8.871848 10.381222 -26.900446 94.229966 28.880140 -90.786021 9.928374 -93.175180 21.658429 -0.223508 0.042931 -32.610663 -9.088643 -13.036767 94.428567 -0.505658 0.546334 19.579801 1.976510 -3.275079 2.814670 -0.286973 0.610768 -13.467496 -95.121374 86.646441 -77.526451 3.812568 83.262485 -42.348662 37.142668 78.195537 20.633687 31.629366 58.763778 -13.467322 84.878631 -75.436058 -74.130509 15.618638 -68.927073 -121.983135 25.658881 -347.733100 -32.501042 2.269673 5.823579 
6.759217 73.502922 -0.004894 -0.000000 0.000000 -0.000000 -25.319684 -87.220689 -24.156381 -88.074627 -0.461263 86.641202 21.557235 2.538259 1.512987 -30.779875 8.804412 9.894602 -25.319458 92.779323 26.534923 -90.378976 9.410303 -92.080902 21.712401 0.273863 0.378666 -31.409380 -8.471662 -12.111646 93.706685 -0.554040 0.591094 19.347628 1.852190 -3.046812 3.053489 0.470209 -0.614278 -37.457007 -94.394095 60.611222 -78.878966 2.993680 85.334334 -40.730884 37.245892 75.879146 20.728183 33.269670 59.551518 -37.457034 85.605916 -52.114343 -73.232414 14.012744 -67.099731 -123.119419 25.559143 -347.956474 -31.850975 0.308750 8.056930 
7.694748 75.453209 -0.005331 -0.000000 0.000000 -0.000000 -25.135555 -88.540616 -24.522710 -89.229926 -3.592898 88.419319 21.940699 1.681142 1.141570 -32.350296 10.432918 12.744181 -25.135132 91.459395 25.762280 -88.586693 7.934570 -89.485778 21.995731 -1.797887 -0.713563 -34.612571 -6.083451 -9.115701 94.651348 -1.172812 1.272100 19.578688 2.031781 -3.680702 2.834305 0.059900 0.020049 -23.535865 -94.792234 77.080536 -77.457508 2.213316 84.826838 -50.331340 36.159192 92.084296 20.345069 17.096804 45.718769 -23.535836 85.207785 -65.458853 -73.399241 17.057322 -66.528542 -113.981910 24.176375 -340.147929 -34.647361 10.545419 1.267022 
7.411042 75.204315 -0.004594 -0.000000 0.000000 -0.000000 3.864661 -87.162189 3.677963 -89.811722 -2.307681 86.683351 20.563149 2.551973 1.685067 -31.463106 9.941476 11.483906 3.864760 92.837810 -4.060915 -88.550199 6.099194 -91.897894 20.826949 0.137835 0.428856 -34.111758 -9.079214 -13.704973 93.839190 -0.856339 0.915729 20.202791 1.533259 -2.765412 3.648071 0.301344 -0.379985 -24.976960 -94.153563 73.763318 -78.279302 1.677294 84.523810 -50.895899 35.794477 91.674143 20.912301 16.387494 44.942723 -24.976989 85.846442 -64.178233 -73.941599 14.849094 -68.097328 -117.063555 24.029408 -346.188275 -34.430048 5.326896 4.185761 
